<svg width="1728" height="1273" viewBox="0 0 1728 1273" fill="none" xmlns="http://www.w3.org/2000/svg">
<path d="M0 26.2003C657.5 -46.2137 1266.63 155.257 1728 26.2003V1108.74L874 1231L0 1108.74V26.2003Z" fill="url(#paint0_linear_196_897)"/>
<path d="M18.2778 1141.74L15.2456 1162.68L28.465 1164.6L29.8634 1154.94L41.3016 1169.15L89.3454 1135.62L78.7699 1134.09L83.7461 1099.72L59.9513 1096.27L56.1234 1122.71L40.2601 1120.42L44.088 1093.98L20.2932 1090.53L15.3169 1124.9L4.74144 1123.37L18.2778 1141.74Z" fill="black"/>
<path d="M469.252 1202.73L466.246 1223.67L479.467 1225.57L480.854 1215.91L492.31 1230.11L540.311 1196.52L529.734 1195L534.667 1160.63L510.868 1157.21L507.073 1183.65L491.207 1181.38L495.002 1154.93L471.203 1151.52L466.27 1185.89L455.692 1184.38L469.252 1202.73Z" fill="black"/>
<path d="M1306.28 1205.97L1308.5 1227.01L1321.79 1225.61L1320.76 1215.91L1335.35 1226.87L1373.66 1182.54L1363.03 1183.66L1359.39 1149.12L1335.48 1151.64L1338.28 1178.21L1322.34 1179.89L1319.54 1153.32L1295.63 1155.84L1299.27 1190.38L1288.64 1191.5L1306.28 1205.97Z" fill="black"/>
<path d="M1615.14 1180L1619.97 1213.71L1641.24 1210.66L1639.01 1195.12L1663.12 1211.87L1722.06 1138.31L1705.04 1140.75L1697.13 1085.44L1658.84 1090.91L1664.93 1133.46L1639.4 1137.11L1633.31 1094.57L1595.02 1100.05L1602.93 1155.36L1585.91 1157.79L1615.14 1180Z" fill="black"/>
<path d="M1375.68 1181.56L1377.84 1196.69L1387.4 1195.32L1386.4 1188.34L1397.22 1195.87L1423.69 1162.84L1416.05 1163.93L1412.49 1139.09L1395.3 1141.55L1398.03 1160.66L1386.57 1162.3L1383.84 1143.19L1366.64 1145.65L1370.2 1170.49L1362.55 1171.58L1375.68 1181.56Z" fill="black"/>
<path d="M263.989 1179.4C263.989 1179.4 279.002 1169.72 287.363 1164.52C287.63 1164.34 287.858 1164.11 288.031 1163.85C288.205 1163.58 288.32 1163.28 288.369 1162.96C288.45 1162.39 288.299 1161.81 287.951 1161.34C287.602 1160.88 287.083 1160.57 286.509 1160.49L282.181 1159.89L284.31 1144.74C284.391 1144.16 284.24 1143.58 283.891 1143.12C283.542 1142.65 283.024 1142.35 282.45 1142.27L275.957 1141.35C275.383 1141.27 274.801 1141.42 274.338 1141.77C273.875 1142.12 273.569 1142.64 273.489 1143.21L272.272 1151.87L263.615 1150.65L264.832 1142C264.912 1141.42 264.762 1140.84 264.413 1140.38C264.064 1139.92 263.546 1139.61 262.972 1139.53L256.479 1138.62C255.905 1138.54 255.322 1138.69 254.859 1139.04C254.397 1139.38 254.091 1139.9 254.01 1140.48L251.881 1155.63L247.553 1155.02C246.979 1154.94 246.396 1155.09 245.933 1155.44C245.47 1155.79 245.165 1156.3 245.084 1156.88C245.042 1157.2 245.074 1157.53 245.177 1157.84C245.28 1158.14 245.452 1158.43 245.68 1158.66C252.23 1165.96 263.989 1179.4 263.989 1179.4Z" fill="black"/>
<path d="M298.225 1189.49C298.225 1189.49 316.812 1177.51 327.165 1171.07C327.496 1170.85 327.778 1170.57 327.992 1170.24C328.207 1169.91 328.35 1169.53 328.411 1169.14C328.511 1168.43 328.324 1167.71 327.892 1167.14C327.46 1166.57 326.819 1166.19 326.108 1166.09L320.749 1165.33L323.385 1146.58C323.485 1145.87 323.298 1145.14 322.866 1144.57C322.434 1144 321.792 1143.62 321.082 1143.52L313.043 1142.39C312.332 1142.29 311.611 1142.48 311.038 1142.91C310.465 1143.34 310.087 1143.98 309.987 1144.69L308.48 1155.41L297.762 1153.91L299.268 1143.19C299.368 1142.48 299.181 1141.76 298.75 1141.18C298.318 1140.61 297.676 1140.23 296.965 1140.13L288.926 1139C288.216 1138.9 287.494 1139.09 286.921 1139.52C286.348 1139.95 285.97 1140.59 285.87 1141.3L283.234 1160.06L277.875 1159.31C277.164 1159.21 276.443 1159.4 275.869 1159.83C275.296 1160.26 274.918 1160.9 274.818 1161.61C274.766 1162.01 274.805 1162.42 274.933 1162.8C275.061 1163.18 275.274 1163.53 275.555 1163.81C283.665 1172.86 298.225 1189.49 298.225 1189.49Z" fill="black"/>
<path d="M719.306 1211.18C719.791 1210.41 720.102 1209.58 720.24 1208.69L720.456 1207.29C720.532 1206.8 720.544 1206.32 720.491 1205.85C720.438 1205.38 720.318 1204.93 720.133 1204.5C719.947 1204.08 719.706 1203.68 719.41 1203.32C719.113 1202.96 718.772 1202.64 718.386 1202.37C718.272 1201.89 718.095 1201.44 717.856 1201.03C717.617 1200.63 717.326 1200.27 716.983 1199.97C716.64 1199.66 716.265 1199.4 715.859 1199.18C715.453 1198.96 715.009 1198.81 714.527 1198.75C713.679 1198.62 712.858 1198.72 712.065 1199.05C711.272 1199.37 710.6 1199.89 710.049 1200.6L696.994 1198.58C696.683 1197.74 696.2 1197.04 695.542 1196.49C694.885 1195.94 694.132 1195.59 693.284 1195.46C692.436 1195.33 691.615 1195.43 690.822 1195.76C690.028 1196.08 689.356 1196.6 688.806 1197.31L685.819 1196.85C685.487 1196.8 685.17 1196.81 684.867 1196.9C684.564 1196.98 684.291 1197.12 684.048 1197.31C683.805 1197.5 683.592 1197.73 683.409 1198.02C683.226 1198.31 683.114 1198.63 683.074 1198.96L682.306 1203.92C682.148 1204.95 682.183 1205.94 682.412 1206.9C682.641 1207.86 683.023 1208.73 683.558 1209.5C684.094 1210.27 684.76 1210.92 685.559 1211.45C686.357 1211.99 687.249 1212.32 688.235 1212.46L688.917 1212.57L693.981 1219.86C694.259 1220.26 694.599 1220.59 695.002 1220.83C695.404 1221.08 695.844 1221.25 696.321 1221.34L713.047 1223.93L713.431 1221.45L712.896 1221.36L719.306 1211.18ZM692.9 1197.94C693.232 1198 693.529 1198.11 693.792 1198.28C694.055 1198.45 694.274 1198.67 694.449 1198.92C694.624 1199.17 694.755 1199.46 694.842 1199.79C694.929 1200.12 694.941 1200.46 694.876 1200.79C694.822 1201.14 694.711 1201.45 694.542 1201.73C694.373 1202.01 694.167 1202.24 693.924 1202.43C693.681 1202.62 693.401 1202.76 693.084 1202.85C692.767 1202.95 692.449 1202.97 692.132 1202.91C691.8 1202.85 691.502 1202.74 691.24 1202.57C690.977 1202.4 690.758 1202.18 690.583 1201.93C690.408 1201.68 690.277 1201.39 690.19 1201.06C690.103 1200.73 690.091 1200.39 690.155 1200.06C690.209 1199.71 690.321 1199.4 690.49 1199.12C690.659 1198.84 690.865 1198.61 691.108 1198.42C691.351 1198.23 691.631 1198.09 691.948 1198C692.265 1197.9 692.582 1197.88 692.9 1197.94ZM701.629 1219.62L696.705 1218.86C696.386 1218.81 696.128 1218.64 695.933 1218.36L692.273 1213.09L702.397 1214.66L701.629 1219.62ZM704.758 1215.02L713.222 1216.33L710.739 1220.29C710.606 1220.5 710.432 1220.65 710.215 1220.75C709.999 1220.85 709.773 1220.88 709.54 1220.84L703.989 1219.98L704.758 1215.02ZM714.143 1201.23C714.475 1201.28 714.773 1201.4 715.035 1201.57C715.298 1201.74 715.517 1201.96 715.692 1202.21C715.867 1202.46 715.998 1202.75 716.085 1203.08C716.172 1203.41 716.184 1203.75 716.119 1204.08C716.065 1204.43 715.954 1204.74 715.785 1205.02C715.616 1205.3 715.41 1205.53 715.167 1205.72C714.924 1205.91 714.644 1206.05 714.327 1206.14C714.01 1206.24 713.693 1206.26 713.375 1206.19C713.043 1206.14 712.746 1206.03 712.483 1205.86C712.22 1205.69 712.001 1205.47 711.826 1205.22C711.651 1204.97 711.52 1204.68 711.433 1204.35C711.346 1204.02 711.334 1203.68 711.399 1203.35C711.453 1203 711.564 1202.69 711.733 1202.41C711.902 1202.13 712.108 1201.9 712.351 1201.71C712.594 1201.52 712.874 1201.38 713.191 1201.28C713.508 1201.19 713.826 1201.17 714.143 1201.23Z" fill="black"/>
<path d="M153.054 1138.47C152.787 1137.43 152.734 1136.39 152.895 1135.35L153.148 1133.72C153.237 1133.14 153.395 1132.6 153.621 1132.09C153.847 1131.59 154.139 1131.13 154.497 1130.72C154.855 1130.31 155.264 1129.95 155.723 1129.65C156.183 1129.35 156.676 1129.12 157.203 1128.95C157.501 1128.46 157.855 1128.02 158.266 1127.65C158.677 1127.28 159.128 1126.99 159.619 1126.77C160.11 1126.55 160.621 1126.39 161.153 1126.29C161.685 1126.18 162.231 1126.18 162.79 1126.29C163.783 1126.44 164.665 1126.84 165.434 1127.48C166.204 1128.13 166.77 1128.95 167.134 1129.93L182.422 1132.3C183.067 1131.47 183.853 1130.86 184.782 1130.48C185.711 1130.1 186.672 1129.98 187.666 1130.14C188.659 1130.29 189.541 1130.69 190.31 1131.34C191.08 1131.98 191.646 1132.8 192.01 1133.78L195.508 1134.33C195.897 1134.39 196.245 1134.52 196.552 1134.72C196.86 1134.92 197.116 1135.17 197.321 1135.47C197.526 1135.76 197.68 1136.1 197.782 1136.49C197.884 1136.88 197.897 1137.27 197.822 1137.66L196.923 1143.47C196.737 1144.66 196.347 1145.76 195.751 1146.75C195.155 1147.74 194.422 1148.57 193.552 1149.24C192.681 1149.92 191.706 1150.41 190.626 1150.72C189.545 1151.03 188.43 1151.09 187.281 1150.9L186.482 1150.78L178.247 1157.12C177.795 1157.47 177.301 1157.71 176.764 1157.85C176.227 1157.98 175.677 1158.01 175.113 1157.94L155.528 1154.91L155.978 1152L156.604 1152.1L153.054 1138.47ZM187.216 1133.04C186.827 1132.98 186.456 1133 186.101 1133.1C185.747 1133.2 185.427 1133.36 185.142 1133.58C184.858 1133.8 184.608 1134.08 184.394 1134.42C184.179 1134.76 184.049 1135.12 184.002 1135.52C183.939 1135.93 183.952 1136.32 184.042 1136.69C184.132 1137.06 184.28 1137.39 184.485 1137.69C184.69 1137.98 184.952 1138.24 185.272 1138.46C185.592 1138.68 185.94 1138.81 186.316 1138.85C186.705 1138.91 187.077 1138.89 187.431 1138.79C187.786 1138.69 188.105 1138.53 188.39 1138.31C188.674 1138.09 188.924 1137.81 189.138 1137.48C189.353 1137.14 189.484 1136.77 189.53 1136.37C189.593 1135.97 189.58 1135.58 189.49 1135.21C189.4 1134.84 189.252 1134.5 189.047 1134.21C188.843 1133.91 188.58 1133.66 188.26 1133.44C187.941 1133.22 187.593 1133.08 187.216 1133.04ZM169.798 1154.14L175.563 1155.04C175.937 1155.09 176.284 1155 176.602 1154.75L182.552 1150.17L170.697 1148.33L169.798 1154.14ZM167.933 1147.9L158.022 1146.37L159.39 1151.67C159.465 1151.95 159.606 1152.18 159.813 1152.36C160.02 1152.55 160.26 1152.67 160.534 1152.71L167.034 1153.71L167.933 1147.9ZM162.34 1129.19C161.951 1129.13 161.58 1129.15 161.225 1129.25C160.871 1129.35 160.551 1129.51 160.267 1129.73C159.982 1129.95 159.732 1130.23 159.518 1130.57C159.303 1130.9 159.173 1131.27 159.126 1131.67C159.063 1132.08 159.076 1132.47 159.166 1132.84C159.257 1133.21 159.404 1133.54 159.609 1133.83C159.814 1134.13 160.076 1134.39 160.396 1134.61C160.716 1134.83 161.064 1134.96 161.44 1135C161.829 1135.06 162.201 1135.04 162.555 1134.94C162.91 1134.84 163.229 1134.68 163.514 1134.46C163.798 1134.24 164.048 1133.96 164.263 1133.62C164.477 1133.29 164.608 1132.92 164.654 1132.52C164.717 1132.11 164.704 1131.73 164.614 1131.36C164.524 1130.98 164.376 1130.65 164.171 1130.36C163.967 1130.06 163.704 1129.8 163.385 1129.58C163.065 1129.36 162.717 1129.23 162.34 1129.19Z" fill="black"/>
<path d="M1587.68 1141.44C1588.16 1139.73 1588.29 1138.01 1588.06 1136.27L1587.7 1133.54C1587.57 1132.58 1587.33 1131.68 1586.97 1130.82C1586.61 1129.97 1586.14 1129.2 1585.56 1128.51C1584.98 1127.81 1584.32 1127.21 1583.56 1126.69C1582.81 1126.17 1582 1125.77 1581.13 1125.47C1580.65 1124.64 1580.08 1123.9 1579.41 1123.27C1578.74 1122.64 1578 1122.14 1577.19 1121.76C1576.39 1121.37 1575.54 1121.09 1574.66 1120.9C1573.78 1120.7 1572.87 1120.68 1571.94 1120.83C1570.28 1121.05 1568.8 1121.68 1567.5 1122.73C1566.2 1123.77 1565.23 1125.11 1564.59 1126.74L1539.08 1130.11C1538.04 1128.71 1536.76 1127.67 1535.23 1127C1533.7 1126.33 1532.1 1126.1 1530.45 1126.32C1528.79 1126.54 1527.31 1127.17 1526.01 1128.22C1524.7 1129.26 1523.73 1130.6 1523.09 1132.22L1517.26 1133C1516.61 1133.08 1516.02 1133.29 1515.5 1133.61C1514.99 1133.94 1514.55 1134.34 1514.2 1134.83C1513.85 1135.31 1513.58 1135.87 1513.4 1136.51C1513.21 1137.15 1513.17 1137.8 1513.29 1138.45L1514.57 1148.14C1514.83 1150.14 1515.44 1151.97 1516.39 1153.64C1517.35 1155.31 1518.54 1156.72 1519.96 1157.87C1521.38 1159.02 1522.98 1159.87 1524.77 1160.43C1526.55 1160.99 1528.4 1161.13 1530.32 1160.85L1531.65 1160.68L1545.11 1171.53C1545.85 1172.13 1546.66 1172.54 1547.55 1172.79C1548.44 1173.03 1549.35 1173.1 1550.29 1173L1582.96 1168.68L1582.32 1163.83L1581.28 1163.97L1587.68 1141.44ZM1531.09 1131.17C1531.74 1131.08 1532.35 1131.13 1532.94 1131.31C1533.52 1131.49 1534.05 1131.76 1534.51 1132.14C1534.98 1132.51 1535.38 1132.99 1535.73 1133.56C1536.07 1134.13 1536.28 1134.74 1536.34 1135.4C1536.43 1136.08 1536.39 1136.73 1536.23 1137.34C1536.07 1137.96 1535.81 1138.5 1535.46 1138.99C1535.1 1139.47 1534.66 1139.89 1534.12 1140.24C1533.58 1140.6 1533 1140.8 1532.37 1140.86C1531.72 1140.94 1531.1 1140.9 1530.52 1140.72C1529.93 1140.54 1529.41 1140.26 1528.94 1139.89C1528.48 1139.51 1528.07 1139.04 1527.73 1138.47C1527.38 1137.9 1527.18 1137.28 1527.12 1136.62C1527.03 1135.94 1527.06 1135.29 1527.23 1134.68C1527.39 1134.07 1527.65 1133.52 1528 1133.04C1528.35 1132.56 1528.8 1132.14 1529.34 1131.78C1529.88 1131.43 1530.46 1131.22 1531.09 1131.17ZM1559.27 1166.88L1549.65 1168.16C1549.03 1168.24 1548.45 1168.07 1547.93 1167.65L1538.21 1159.81L1557.99 1157.19L1559.27 1166.88ZM1562.6 1156.58L1579.13 1154.4L1576.66 1163.16C1576.52 1163.61 1576.28 1163.99 1575.93 1164.29C1575.58 1164.6 1575.18 1164.78 1574.72 1164.84L1563.88 1166.27L1562.6 1156.58ZM1572.58 1125.68C1573.23 1125.59 1573.85 1125.64 1574.43 1125.82C1575.02 1126 1575.54 1126.28 1576.01 1126.65C1576.47 1127.03 1576.88 1127.5 1577.22 1128.07C1577.57 1128.64 1577.77 1129.25 1577.83 1129.91C1577.92 1130.6 1577.89 1131.24 1577.72 1131.85C1577.56 1132.47 1577.3 1133.01 1576.95 1133.5C1576.6 1133.98 1576.15 1134.4 1575.61 1134.75C1575.07 1135.11 1574.49 1135.31 1573.86 1135.37C1573.22 1135.46 1572.6 1135.41 1572.01 1135.23C1571.43 1135.05 1570.9 1134.77 1570.44 1134.4C1569.97 1134.02 1569.57 1133.55 1569.22 1132.98C1568.88 1132.41 1568.67 1131.79 1568.61 1131.13C1568.52 1130.45 1568.56 1129.81 1568.72 1129.19C1568.89 1128.58 1569.14 1128.03 1569.49 1127.55C1569.85 1127.07 1570.29 1126.65 1570.83 1126.29C1571.37 1125.94 1571.95 1125.74 1572.58 1125.68Z" fill="black"/>
<path d="M814.337 1218.95L809.128 1256.84L781.262 1272.31L758.606 1249.89L763.815 1212L782.761 1214.6L779.722 1236.71L792.353 1238.44L795.391 1216.34L814.337 1218.95Z" fill="black"/>
<path d="M457.95 1165.77L454.931 1187.26L439.098 1195.99L426.286 1183.23L429.305 1161.75L440.047 1163.26L438.286 1175.79L445.447 1176.8L447.208 1164.26L457.95 1165.77Z" fill="black"/>
<path d="M428.111 1162.51L425.016 1183.99L409.153 1192.66L396.385 1179.86L399.48 1158.39L410.217 1159.93L408.411 1172.46L415.569 1173.49L417.374 1160.96L428.111 1162.51Z" fill="black"/>
<path d="M398.568 1158.43L395.246 1179.87L379.292 1188.37L366.66 1175.44L369.982 1154L380.702 1155.66L378.764 1168.17L385.91 1169.27L387.848 1156.77L398.568 1158.43Z" fill="black"/>
<path d="M117.767 1119.43L115.193 1138.86L100.953 1146.86L89.2875 1135.43L91.862 1116L101.576 1117.29L100.075 1128.62L106.551 1129.48L108.053 1118.15L117.767 1119.43Z" fill="black"/>
<path d="M152.034 1116.83L148.411 1144.28L128.299 1155.59L111.812 1139.45L115.436 1112L129.16 1113.81L127.046 1129.82L136.196 1131.03L138.31 1115.02L152.034 1116.83Z" fill="black"/>
<path d="M1035.37 1197L1038.86 1219.03L1025.92 1232.37L1009.49 1223.68L1006 1201.65L1017.01 1199.91L1019.05 1212.76L1026.39 1211.59L1024.36 1198.74L1035.37 1197Z" fill="black"/>
<path d="M1210 1178.71L1213.4 1200.76L1229.98 1209.43L1243.16 1196.05L1239.77 1174L1228.61 1175.77L1230.59 1188.63L1223.14 1189.81L1221.16 1176.95L1210 1178.71Z" fill="black"/>
<path d="M1081.84 1191L1087.05 1223.88L1067.73 1243.8L1043.21 1230.83L1038 1197.94L1054.44 1195.34L1057.48 1214.52L1068.44 1212.79L1065.4 1193.6L1081.84 1191Z" fill="black"/>
<path d="M1161 1181.04L1166.07 1213.95L1190.82 1226.89L1210.51 1206.92L1205.44 1174L1188.77 1176.64L1191.73 1195.84L1180.62 1197.6L1177.66 1178.4L1161 1181.04Z" fill="black"/>
<path d="M721.795 1200L717.265 1231.26L736.13 1249.86L759.526 1237.2L764.056 1205.94L748.208 1203.71L745.565 1221.95L735 1220.46L737.643 1202.23L721.795 1200Z" fill="black"/>
<path d="M1118.45 1184.75L1123.04 1210.81L1107.97 1226.9L1088.3 1216.93L1083.71 1190.88L1096.73 1188.58L1099.41 1203.78L1108.1 1202.25L1105.42 1187.05L1118.45 1184.75Z" fill="black"/>
<path d="M1134 1185.74L1136.69 1203.25L1149.85 1210.13L1160.32 1199.5L1157.63 1182L1148.77 1183.4L1150.33 1193.61L1144.43 1194.55L1142.86 1184.34L1134 1185.74Z" fill="black"/>
<defs>
<linearGradient id="paint0_linear_196_897" x1="864" y1="-356.334" x2="864" y2="1215.26" gradientUnits="userSpaceOnUse">
<stop stop-color="#272626"/>
<stop offset="0.376428" stop-color="#181818"/>
<stop offset="0.661428" stop-color="#121212"/>
<stop offset="1"/>
</linearGradient>
</defs>
</svg>
