<svg width="1733" height="193" viewBox="0 0 1733 193" fill="none" xmlns="http://www.w3.org/2000/svg">
<path d="M19.2778 58.7387L16.2456 79.6814L29.465 81.5954L30.8634 71.937L42.3016 86.1532L90.3454 52.6197L79.7699 51.0886L84.7461 16.7182L60.9513 13.2731L57.1234 39.7119L41.2601 37.4151L45.088 10.9764L21.2932 7.53131L16.3169 41.9017L5.74144 40.3705L19.2778 58.7387Z" fill="black"/>
<path d="M470.252 119.728L467.246 140.674L480.467 142.572L481.854 132.911L493.31 147.113L541.311 113.52L530.734 112.002L535.667 77.6254L511.868 74.21L508.073 100.654L492.207 98.3766L496.002 71.9331L472.203 68.5178L467.27 102.894L456.692 101.376L470.252 119.728Z" fill="black"/>
<path d="M1307.28 122.969L1309.5 144.014L1322.79 142.613L1321.76 132.908L1336.35 143.87L1374.66 99.5374L1364.03 100.658L1360.39 66.1205L1336.48 68.6412L1339.28 95.2084L1323.34 96.8889L1320.54 70.3217L1296.63 72.8424L1300.27 107.38L1289.64 108.5L1307.28 122.969Z" fill="black"/>
<path d="M1616.14 97.003L1620.97 130.705L1642.24 127.661L1640.02 112.118L1664.12 128.872L1723.06 55.3108L1706.05 57.746L1698.13 2.43532L1659.84 7.91463L1665.93 50.4613L1640.4 54.1142L1634.31 11.5675L1596.02 17.0468L1603.93 72.3575L1586.91 74.7928L1616.14 97.003Z" fill="black"/>
<path d="M1376.68 98.5563L1378.84 113.689L1388.4 112.323L1387.4 105.343L1398.22 112.866L1424.69 79.8356L1417.05 80.9291L1413.49 56.0933L1396.3 58.5537L1399.03 77.6581L1387.57 79.2983L1384.84 60.1939L1367.64 62.6542L1371.2 87.4899L1363.55 88.5834L1376.68 98.5563Z" fill="black"/>
<path d="M264.989 96.3983C264.989 96.3983 280.002 86.7228 288.363 81.5153C288.63 81.3413 288.858 81.1131 289.031 80.8455C289.205 80.5778 289.32 80.2767 289.369 79.9617C289.45 79.3877 289.299 78.8052 288.951 78.3423C288.602 77.8794 288.083 77.574 287.509 77.4933L283.181 76.885L285.31 61.7353C285.391 61.1613 285.24 60.5788 284.891 60.1158C284.542 59.6529 284.024 59.3475 283.45 59.2669L276.957 58.3544C276.383 58.2737 275.801 58.4244 275.338 58.7732C274.875 59.122 274.569 59.6405 274.489 60.2145L273.272 68.8714L264.615 67.6548L265.832 58.9978C265.912 58.4238 265.762 57.8413 265.413 57.3784C265.064 56.9154 264.546 56.6101 263.972 56.5294L257.479 55.6169C256.905 55.5362 256.322 55.6869 255.859 56.0357C255.397 56.3846 255.091 56.903 255.01 57.477L252.881 72.6267L248.553 72.0184C247.979 71.9377 247.396 72.0883 246.933 72.4372C246.47 72.786 246.165 73.3045 246.084 73.8784C246.042 74.2007 246.074 74.5282 246.177 74.8364C246.28 75.1445 246.452 75.4252 246.68 75.6571C253.23 82.9603 264.989 96.3983 264.989 96.3983Z" fill="black"/>
<path d="M299.225 106.494C299.225 106.494 317.812 94.5147 328.165 88.0671C328.496 87.8517 328.778 87.5692 328.992 87.2378C329.207 86.9064 329.35 86.5336 329.411 86.1436C329.511 85.4329 329.324 84.7117 328.892 84.1385C328.46 83.5654 327.819 83.1873 327.108 83.0874L321.749 82.3342L324.385 63.5768C324.485 62.8661 324.298 62.1449 323.866 61.5717C323.434 60.9986 322.792 60.6205 322.082 60.5206L314.043 59.3908C313.332 59.2909 312.611 59.4774 312.038 59.9093C311.465 60.3412 311.087 60.9831 310.987 61.6938L309.48 72.4123L298.762 70.9059L300.268 60.1874C300.368 59.4768 300.181 58.7555 299.75 58.1824C299.318 57.6092 298.676 57.2311 297.965 57.1312L289.926 56.0014C289.216 55.9015 288.494 56.0881 287.921 56.52C287.348 56.9519 286.97 57.5938 286.87 58.3045L284.234 77.0618L278.875 76.3086C278.164 76.2088 277.443 76.3953 276.869 76.8272C276.296 77.2591 275.918 77.901 275.818 78.6117C275.766 79.0106 275.805 79.4162 275.933 79.7977C276.061 80.1793 276.274 80.5268 276.555 80.8139C284.665 89.8562 299.225 106.494 299.225 106.494Z" fill="black"/>
<path d="M720.306 128.182C720.791 127.41 721.102 126.578 721.24 125.687L721.456 124.291C721.532 123.8 721.544 123.319 721.491 122.848C721.438 122.377 721.318 121.928 721.133 121.503C720.947 121.077 720.706 120.682 720.41 120.319C720.113 119.955 719.772 119.638 719.386 119.367C719.272 118.886 719.095 118.442 718.856 118.034C718.617 117.627 718.326 117.271 717.983 116.966C717.64 116.662 717.265 116.399 716.859 116.177C716.453 115.955 716.009 115.814 715.527 115.753C714.679 115.621 713.858 115.719 713.065 116.046C712.272 116.373 711.6 116.891 711.049 117.6L697.994 115.578C697.683 114.736 697.2 114.039 696.542 113.488C695.885 112.936 695.132 112.595 694.284 112.463C693.436 112.332 692.615 112.43 691.822 112.757C691.028 113.084 690.356 113.602 689.806 114.31L686.819 113.848C686.487 113.796 686.17 113.814 685.867 113.899C685.564 113.984 685.291 114.121 685.048 114.308C684.805 114.495 684.592 114.734 684.409 115.023C684.226 115.312 684.114 115.625 684.074 115.963L683.306 120.925C683.148 121.946 683.183 122.937 683.412 123.898C683.641 124.86 684.023 125.726 684.558 126.497C685.094 127.268 685.76 127.92 686.559 128.454C687.357 128.988 688.249 129.324 689.235 129.464L689.917 129.569L694.981 136.863C695.259 137.263 695.599 137.587 696.002 137.835C696.404 138.082 696.844 138.249 697.321 138.337L714.047 140.926L714.431 138.445L713.896 138.363L720.306 128.182ZM693.9 114.944C694.232 114.996 694.529 115.108 694.792 115.281C695.055 115.454 695.274 115.666 695.449 115.918C695.624 116.17 695.755 116.462 695.842 116.793C695.929 117.124 695.941 117.456 695.876 117.791C695.822 118.139 695.711 118.453 695.542 118.731C695.373 119.009 695.167 119.242 694.924 119.429C694.681 119.617 694.401 119.758 694.084 119.855C693.767 119.951 693.449 119.968 693.132 119.906C692.8 119.854 692.502 119.742 692.24 119.569C691.977 119.396 691.758 119.184 691.583 118.932C691.408 118.68 691.277 118.388 691.19 118.057C691.103 117.726 691.091 117.394 691.155 117.06C691.209 116.711 691.321 116.397 691.49 116.119C691.659 115.841 691.865 115.608 692.108 115.421C692.351 115.234 692.631 115.092 692.948 114.995C693.265 114.899 693.582 114.882 693.9 114.944ZM702.629 136.618L697.705 135.856C697.386 135.806 697.128 135.641 696.933 135.359L693.273 130.089L703.397 131.656L702.629 136.618ZM705.758 132.022L714.222 133.332L711.739 137.294C711.606 137.499 711.432 137.65 711.215 137.749C710.999 137.848 710.773 137.879 710.54 137.843L704.989 136.984L705.758 132.022ZM715.143 118.233C715.475 118.285 715.773 118.397 716.035 118.57C716.298 118.743 716.517 118.955 716.692 119.207C716.867 119.459 716.998 119.751 717.085 120.082C717.172 120.413 717.184 120.746 717.119 121.08C717.065 121.428 716.954 121.742 716.785 122.02C716.616 122.298 716.41 122.531 716.167 122.718C715.924 122.906 715.644 123.047 715.327 123.144C715.01 123.24 714.693 123.257 714.375 123.195C714.043 123.144 713.746 123.031 713.483 122.858C713.22 122.685 713.001 122.473 712.826 122.221C712.651 121.969 712.52 121.677 712.433 121.346C712.346 121.015 712.334 120.683 712.399 120.349C712.453 120 712.564 119.686 712.733 119.408C712.902 119.13 713.108 118.897 713.351 118.71C713.594 118.523 713.874 118.381 714.191 118.284C714.508 118.188 714.826 118.171 715.143 118.233Z" fill="black"/>
<path d="M154.054 55.4664C153.787 54.4335 153.734 53.395 153.895 52.351L154.148 50.7169C154.237 50.1419 154.395 49.6008 154.621 49.0935C154.847 48.5862 155.139 48.1279 155.497 47.7186C155.855 47.3093 156.264 46.9542 156.723 46.6535C157.183 46.3528 157.676 46.1193 158.203 45.953C158.501 45.4568 158.855 45.0237 159.266 44.6535C159.677 44.2834 160.128 43.9891 160.619 43.7707C161.11 43.5523 161.621 43.3914 162.153 43.2878C162.685 43.1843 163.231 43.1835 163.79 43.2856C164.783 43.4394 165.665 43.8392 166.434 44.4852C167.204 45.1311 167.77 45.947 168.134 46.9329L183.422 49.2999C184.067 48.4701 184.853 47.8638 185.782 47.4808C186.711 47.0979 187.672 46.9833 188.666 47.1371C189.659 47.2909 190.541 47.6908 191.31 48.3367C192.08 48.9827 192.646 49.7986 193.01 50.7844L196.508 51.326C196.897 51.3862 197.245 51.5176 197.552 51.7201C197.86 51.9227 198.116 52.1716 198.321 52.4667C198.526 52.7618 198.68 53.1031 198.782 53.4908C198.884 53.8784 198.897 54.2678 198.822 54.659L197.923 60.4691C197.737 61.6644 197.347 62.7582 196.751 63.7505C196.155 64.7427 195.422 65.5743 194.552 66.2452C193.681 66.9161 192.706 67.408 191.626 67.721C190.545 68.034 189.43 68.0938 188.281 67.9004L187.482 67.7767L179.247 74.1243C178.795 74.4726 178.301 74.7137 177.764 74.8475C177.227 74.9813 176.677 75.0123 176.113 74.9405L156.528 71.9081L156.978 69.003L157.604 69.1L154.054 55.4664ZM188.216 50.0422C187.827 49.982 187.456 50.0019 187.101 50.102C186.747 50.202 186.427 50.3617 186.142 50.581C185.858 50.8003 185.608 51.0793 185.394 51.4179C185.179 51.7565 185.049 52.1236 185.002 52.5193C184.939 52.9278 184.952 53.3172 185.042 53.6875C185.132 54.0578 185.28 54.3905 185.485 54.6856C185.69 54.9807 185.952 55.2382 186.272 55.4581C186.592 55.6781 186.94 55.8094 187.316 55.8523C187.705 55.9124 188.077 55.8925 188.431 55.7925C188.786 55.6924 189.105 55.5327 189.39 55.3134C189.674 55.0941 189.924 54.8151 190.138 54.4765C190.353 54.1379 190.484 53.7708 190.53 53.3752C190.593 52.9666 190.58 52.5772 190.49 52.2069C190.4 51.8367 190.252 51.504 190.047 51.2089C189.843 50.9137 189.58 50.6562 189.26 50.4363C188.941 50.2164 188.593 50.085 188.216 50.0422ZM170.798 71.1428L176.563 72.0355C176.937 72.0934 177.284 71.9998 177.602 71.7547L183.552 67.1682L171.697 65.3327L170.798 71.1428ZM168.933 64.9047L159.022 63.3701L160.39 68.6715C160.465 68.9465 160.606 69.1776 160.813 69.3645C161.02 69.5515 161.26 69.6661 161.534 69.7085L168.034 70.7148L168.933 64.9047ZM163.34 46.1906C162.951 46.1304 162.58 46.1504 162.225 46.2504C161.871 46.3505 161.551 46.5101 161.267 46.7295C160.982 46.9488 160.732 47.2278 160.518 47.5664C160.303 47.905 160.173 48.2721 160.126 48.6677C160.063 49.0762 160.076 49.4657 160.166 49.8359C160.257 50.2062 160.404 50.5389 160.609 50.834C160.814 51.1291 161.076 51.3867 161.396 51.6066C161.716 51.8265 162.064 51.9579 162.44 52.0007C162.829 52.0609 163.201 52.041 163.555 51.9409C163.91 51.8409 164.229 51.6812 164.514 51.4619C164.798 51.2426 165.048 50.9636 165.263 50.625C165.477 50.2864 165.608 49.9192 165.654 49.5236C165.717 49.1151 165.704 48.7257 165.614 48.3554C165.524 47.9851 165.376 47.6524 165.171 47.3573C164.967 47.0622 164.704 46.8047 164.385 46.5848C164.065 46.3648 163.717 46.2334 163.34 46.1906Z" fill="black"/>
<path d="M1588.68 58.4394C1589.16 56.7321 1589.29 55.0076 1589.06 53.2662L1588.7 50.5404C1588.57 49.5813 1588.33 48.676 1587.97 47.8244C1587.61 46.9728 1587.14 46.2002 1586.56 45.5065C1585.98 44.8129 1585.32 44.2077 1584.56 43.6909C1583.81 43.1741 1583 42.7678 1582.13 42.472C1581.65 41.6362 1581.08 40.9032 1580.41 40.2727C1579.74 39.6422 1579 39.1365 1578.19 38.7554C1577.39 38.3743 1576.54 38.0879 1575.66 37.8963C1574.78 37.7046 1573.87 37.6833 1572.94 37.8324C1571.28 38.0515 1569.8 38.6839 1568.5 39.7294C1567.2 40.7749 1566.23 42.1104 1565.59 43.7359L1540.08 47.1089C1539.04 45.7058 1537.76 44.6689 1536.23 43.9981C1534.7 43.3274 1533.1 43.1016 1531.45 43.3208C1529.79 43.5399 1528.31 44.1723 1527.01 45.2178C1525.7 46.2633 1524.73 47.5988 1524.09 49.2243L1518.26 49.9961C1517.61 50.0818 1517.02 50.2874 1516.5 50.6129C1515.99 50.9383 1515.55 51.3426 1515.2 51.8256C1514.85 52.3087 1514.58 52.8705 1514.4 53.5112C1514.21 54.1519 1514.17 54.7987 1514.29 55.4517L1515.57 65.1434C1515.83 67.1372 1516.44 68.9699 1517.39 70.6413C1518.35 72.3127 1519.54 73.7221 1520.96 74.8693C1522.38 76.0166 1523.98 76.8702 1525.77 77.4303C1527.55 77.9904 1529.4 78.1307 1531.32 77.8514L1532.65 77.6751L1546.11 88.5299C1546.85 89.1256 1547.66 89.5445 1548.55 89.7867C1549.44 90.0289 1550.35 90.1006 1551.29 90.002L1583.96 85.6808L1583.32 80.835L1582.28 80.9732L1588.68 58.4394ZM1532.09 48.1666C1532.74 48.0809 1533.35 48.1276 1533.94 48.307C1534.52 48.4863 1535.05 48.7635 1535.51 49.1386C1535.98 49.5136 1536.38 49.9866 1536.73 50.5574C1537.07 51.1281 1537.28 51.7432 1537.34 52.4026C1537.43 53.0841 1537.39 53.7309 1537.23 54.3432C1537.07 54.9554 1536.81 55.5031 1536.46 55.9861C1536.1 56.4692 1535.66 56.8876 1535.12 57.2415C1534.58 57.5953 1534 57.8009 1533.37 57.8583C1532.72 57.944 1532.1 57.8972 1531.52 57.7179C1530.93 57.5386 1530.41 57.2614 1529.94 56.8863C1529.48 56.5112 1529.07 56.0383 1528.73 55.4675C1528.38 54.8967 1528.18 54.2816 1528.12 53.6223C1528.03 52.9408 1528.06 52.294 1528.23 51.6817C1528.39 51.0695 1528.65 50.5218 1529 50.0388C1529.35 49.5557 1529.8 49.1373 1530.34 48.7834C1530.88 48.4295 1531.46 48.224 1532.09 48.1666ZM1560.27 83.8841L1550.65 85.1562C1550.03 85.2387 1549.45 85.0704 1548.93 84.6513L1539.21 76.808L1558.99 74.1925L1560.27 83.8841ZM1563.6 73.5826L1580.13 71.3958L1577.66 80.1584C1577.52 80.6129 1577.28 80.9917 1576.93 81.2949C1576.58 81.5981 1576.18 81.7799 1575.72 81.8402L1564.88 83.2743L1563.6 73.5826ZM1573.58 42.6782C1574.23 42.5924 1574.85 42.6392 1575.43 42.8186C1576.02 42.9979 1576.54 43.2751 1577.01 43.6502C1577.47 44.0252 1577.88 44.4981 1578.22 45.0689C1578.57 45.6397 1578.77 46.2548 1578.83 46.9142C1578.92 47.5956 1578.89 48.2425 1578.72 48.8547C1578.56 49.467 1578.3 50.0146 1577.95 50.4977C1577.6 50.9808 1577.15 51.3992 1576.61 51.7531C1576.07 52.1069 1575.49 52.3125 1574.86 52.3698C1574.22 52.4556 1573.6 52.4088 1573.01 52.2295C1572.43 52.0501 1571.9 51.7729 1571.44 51.3979C1570.97 51.0228 1570.57 50.5499 1570.22 49.9791C1569.88 49.4083 1569.67 48.7932 1569.61 48.1338C1569.52 47.4524 1569.56 46.8056 1569.72 46.1933C1569.89 45.5811 1570.14 45.0334 1570.49 44.5503C1570.85 44.0673 1571.29 43.6488 1571.83 43.295C1572.37 42.9411 1572.95 42.7355 1573.58 42.6782Z" fill="black"/>
<path d="M815.336 135.945L810.127 173.837L782.261 189.31L759.605 166.892L764.814 129L783.76 131.605L780.721 153.708L793.352 155.444L796.39 133.341L815.336 135.945Z" fill="black"/>
<path d="M458.95 82.7745L455.931 104.258L440.098 112.987L427.286 100.232L430.305 78.7487L441.047 80.2583L439.286 92.7905L446.447 93.7969L448.208 81.2648L458.95 82.7745Z" fill="black"/>
<path d="M429.111 79.512L426.016 100.985L410.153 109.658L397.385 96.8587L400.48 75.3857L411.217 76.9331L409.411 89.459L416.569 90.4905L418.374 77.9646L429.111 79.512Z" fill="black"/>
<path d="M399.568 75.4289L396.246 96.8679L380.292 105.373L367.66 92.439L370.982 70.9999L381.702 72.6608L379.764 85.1669L386.91 86.2741L388.848 73.768L399.568 75.4289Z" fill="black"/>
<path d="M118.767 36.4325L116.193 55.8613L101.953 63.8594L90.2875 52.4287L92.862 32.9999L102.576 34.2872L101.075 45.6206L107.551 46.4788L109.053 35.1453L118.767 36.4325Z" fill="black"/>
<path d="M153.034 33.8317L149.411 61.2807L129.299 72.5893L112.812 56.449L116.436 29L130.16 30.8119L128.046 46.8238L137.196 48.0317L139.31 32.0198L153.034 33.8317Z" fill="black"/>
<path d="M1036.37 114L1039.86 136.027L1026.92 149.366L1010.49 140.678L1007 118.652L1018.01 116.907L1020.05 129.756L1027.39 128.593L1025.36 115.744L1036.37 114Z" fill="black"/>
<path d="M1211 95.7146L1214.4 117.764L1230.98 126.431L1244.16 113.049L1240.77 90.9998L1229.61 92.7679L1231.59 105.63L1224.14 106.808L1222.16 93.9466L1211 95.7146Z" fill="black"/>
<path d="M1082.84 108L1088.05 140.882L1068.73 160.796L1044.21 147.827L1039 114.944L1055.44 112.34L1058.48 131.521L1069.44 129.785L1066.4 110.604L1082.84 108Z" fill="black"/>
<path d="M1162 98.0384L1167.07 130.954L1191.82 143.893L1211.51 123.916L1206.44 90.9999L1189.77 93.6393L1192.73 112.84L1181.62 114.6L1178.66 95.3989L1162 98.0384Z" fill="black"/>
<path d="M722.795 117L718.265 148.262L737.13 166.863L760.526 154.201L765.056 122.939L749.208 120.712L746.565 138.948L736 137.463L738.643 119.227L722.795 117Z" fill="black"/>
<path d="M1119.45 101.753L1124.04 127.806L1108.97 143.895L1089.3 133.931L1084.71 107.878L1097.74 105.582L1100.42 120.779L1109.1 119.248L1106.42 104.05L1119.45 101.753Z" fill="black"/>
<path d="M1135 102.742L1137.69 120.247L1150.85 127.128L1161.32 116.505L1158.63 99.0001L1149.77 100.403L1151.33 110.615L1145.43 111.55L1143.86 101.339L1135 102.742Z" fill="black"/>
</svg>
