<svg width="192" height="192" viewBox="0 0 192 192" fill="none" xmlns="http://www.w3.org/2000/svg">
<path d="M158.809 48C131.735 48 109.787 69.9476 109.787 97.0213C109.787 109.015 116.561 132.027 128.17 138.301M73.0213 48C45.9476 48 24 69.9476 24 97.0213C24 109.015 30.7738 132.027 42.383 138.301M168 118.468C168 132.005 157.026 142.979 143.489 142.979C129.953 142.979 118.979 132.005 118.979 118.468C118.979 104.931 129.953 93.9574 143.489 93.9574C157.026 93.9574 168 104.931 168 118.468ZM82.2128 118.468C82.2128 132.005 71.239 142.979 57.7021 142.979C44.1653 142.979 33.1915 132.005 33.1915 118.468C33.1915 104.931 44.1653 93.9574 57.7021 93.9574C71.239 93.9574 82.2128 104.931 82.2128 118.468Z" stroke="#EEEEFF" stroke-width="16" stroke-linecap="round" stroke-linejoin="round"/>
</svg>
